<?xml version="1.0" encoding="UTF-8"?>
<!DOCTYPE svg PUBLIC "-//W3C//DTD SVG 1.1//EN" "http://www.w3.org/Graphics/SVG/1.1/DTD/svg11.dtd">
<!-- Creator: CorelDRAW -->
<svg xmlns="http://www.w3.org/2000/svg" xml:space="preserve" width="244.687mm" height="244.687mm" style="shape-rendering:geometricPrecision; text-rendering:geometricPrecision; image-rendering:optimizeQuality; fill-rule:evenodd; clip-rule:evenodd"
viewBox="0 0 244.687 244.687"
 xmlns:xlink="http://www.w3.org/1999/xlink">
 <defs>
  <style type="text/css">
   <![CDATA[
    .str3 {stroke:yellow;stroke-width:0.508}
    .str0 {stroke:red;stroke-width:0.5927}
    .str2 {stroke:blue;stroke-width:0.6773}
    .str1 {stroke:lime;stroke-width:0.6773}
    .fil0 {fill:none}
    .fil1 {fill:blue}
   ]]>
  </style>
 </defs>
 <g id="Ebene_x0020_2">
  <metadata id="CorelCorpID_0Corel-Layer"/>
  <path class="fil0 str0" d="M226.226 27.2618c0.3668,2.0944 0.4354,3.9811 2.9818,5.849 2.5464,1.868 6.7305,3.7299 6.4749,8.9856"/>
  <path class="fil0 str1" d="M167.782 87.5326l4.0042 -2.9669c1.9143,-0.9684 3.8198,-0.99 5.7081,0.7629 0.9445,0.8194 1.5335,1.6106 5.5873,2.0322l0.0001 0m-15.8961 1.8671c1.5335,-1.3562 3.4079,-2.7126 5.8785,-2.7126 1.3916,-0.2946 2.525,-0.9288 3.493,-1.7801 1.1928,-1.1867 0.7335,-2.8253 -1.1075,-4.747 -1.1928,-1.7802 -3.1632,-2.4281 -3.1801,-5.7461m6.2054 13.9051c-4.0476,0.2331 -7.8856,0.1893 -11.2893,1.0807l-3.4929 2.1193m7.6957 -12.3527c-0.2838,3.3671 -1.1967,6.4258 -3.6064,8.5381 -1.2779,1.1867 -2.8066,1.7476 -4.1746,2.6278m3.2374 -69.002c1.7426,1.0836 2.7396,2.0072 3.919,2.7974 0.6658,0.446 1.6576,0.9127 2.2151,1.1867 1.5454,0.7597 2.8597,0.4582 4.8561,-1.1867 1.0232,-0.9649 2.1937,-1.4935 3.4349,-1.8122m-21.7518 -5.3084l7.3267 4.3232c2.6537,2.449 4.2972,4.9562 4.2884,7.5588l0.0313 -0.2362m-4.0991 -8.2397c1.0223,0.6781 2.5418,1.8038 3.6132,2.3582 1.0714,0.5543 2.6411,0.5086 3.7487,1.102 3.0187,0.7466 3.387,2.5499 1.7038,5.1709 -1.3547,1.8167 -2.9818,3.0517 -4.0642,5.45l0 0.0001m-12.4636 -18.5045l7.4621 4.4233c1.9769,0.9893 8.7548,1.2395 13.5728,1.0214m-9.505 7.4545l0.2633 51.8634c0.3509,5.7626 3.9099,7.7173 8.824,7.6301l43.1296 -0.0438c5.8575,-1.1428 10.4581,-5.2118 10.1739,-12.3011l0 -46.712c0.0286,-6.0457 -4.3164,-13.1663 -12.285,-14.4064 -7.6343,-1.0478 -15.5319,2.8813 -26.4131,5.5879 -4.914,1.0478 -8.6873,0.9604 -14.1877,0.9274 -6.2655,0.2535 -8.9675,3.0741 -9.505,7.4545zm0.9086 0.6638l0.2555 50.3529c0.3409,5.5947 3.8338,7.7139 8.6047,7.6292l41.8734 -0.0425c6.3027,-0.892 9.7242,-4.9154 9.8401,-12.1643l0 -45.3514c-0.9371,-7.6293 -4.223,-12.9586 -11.9273,-13.9869 -7.412,-1.0173 -15.0795,2.7973 -25.6438,5.4252 -4.7709,1.0172 -8.4343,0.9324 -13.7745,0.9004 -6.0829,0.2461 -8.7063,2.9845 -9.2281,7.2374zm14.6948 -7.2404c5.2408,0.1198 6.604,1.9847 7.4133,2.9596 0.8093,0.9749 0.8942,2.0418 0.8941,2.1516l-0.0848 61.8066c-0.2682,3.0326 -0.6715,5.844 -1.3138,8.2649m-10.6437 -76.0461c2.0037,-0.1311 3.7647,-0.8196 5.3975,-1.5598 1.6328,-0.7402 3.4367,-1.9102 4.9414,-1.7802 1.5046,0.1301 2.6409,0.7629 2.8965,2.4583 0.2251,1.4933 -0.2839,3.5037 -0.4259,5.2556 0,0.9042 0,62.5031 0,63.4073l-0.0786 0.2471c-0.0066,3.737 -0.8204,6.5926 -1.1674,8.0178m38.9262 -54.5903c0.2316,-2.7559 2.7023,-3.5188 2.7549,-6.5902 0.0551,-3.2207 -2.7343,-3.0497 -2.7549,-7.1041m-0.9085 0.5086c-0.1794,2.5751 -3.0671,3.5438 -3.0671,6.5955 0,2.6365 3.118,3.4356 3.1386,7.49m0.8696 25.2287c0,-3.0445 2.6697,-3.7928 2.7549,-6.5901 0.0981,-3.2197 -2.7343,-3.0497 -2.7549,-7.1041m-0.9085 0.5086c-0.1794,2.575 -3.0671,3.5438 -3.0671,6.5955 0,2.6364 3.118,3.4355 3.1386,7.4899m-10.6804 17.5032c-2.588,-0.1785 -4.4623,-2.9758 -6.5922,-2.9758 -2.6498,0 -3.4893,3.0265 -7.564,3.047m1.0625 0.9026c2.5879,0.1785 4.4622,2.9759 6.5921,2.9759 2.6498,0 3.4893,-3.0265 7.5641,-3.0471m-50.8976 -33.2584c0.1794,-2.575 2.9908,-4.44 2.9908,-6.5592 0,-2.6365 -3.0418,-3.4718 -3.0624,-7.5262m-0.9011 0.8172c-0.1794,2.5751 -2.9908,4.44 -2.9908,6.5593 0,2.6365 3.0417,3.4718 3.0624,7.5262m23.7478 -9.6149c-0.3146,2.5125 -2.9556,3.5297 -2.9556,6.3271 0,2.7974 2.7262,3.3908 2.938,6.4958 0,0 0,-0.0001 0,-0.0001m0.793 -0.2861c0.3145,-2.5124 2.9555,-3.5297 2.9555,-6.3271 0,-2.7973 -2.7262,-3.3907 -2.9379,-6.4958 0,0 0,0.0001 0,0.0001"/>
  <path class="fil0 str2" d="M218.222 31.2293l-0.0045 14.0035m-0.3703 -14.0041l-0.0001 14.0044 -0.0001 0m-8.0638 -10.2658l15.3512 0.009m-15.3512 -0.396l15.3504 -0.0002m-0.0074 -3.4189l0.0157 7.2901m-4.2289 0l-0.0001 3.3964m-2.6954 -0.0056l6.2192 0.0127m-6.3896 -3.4035l7.5823 0 2.8115 2.7126 0 1.6106 -4.0042 0 0 -4.3232m-14.6535 6.7911l8.8176 -0.0096m-8.8176 -5.4462l8.2639 0.021m-9.1158 -3.7477l-8.1325 0m-0.0463 2.9c-0.0207,0.4806 0.2227,0.772 0.7668,0.8477l7.412 -0.0276m-45.9203 6.9786l0 26.0242 0.7668 0.7629 16.613 0c0.6817,0 0.6817,0.5086 0.6817,0.8477l0 1.1867c0.057,0.2751 0.2758,0.4307 0.6815,0.4238l16.2722 0c0.3408,0.0849 0.4261,0.1697 0.4261,0.5935l0 1.102m10.479 -36.0008c-1.6188,-0.1956 -2.5072,1.3064 -2.5559,2.4323 -0.0487,1.1258 1.1927,2.2887 2.3537,2.2426m1.0541 -0.0387l0 -15.4279c0.1753,-0.6839 0.3618,-1.2889 0.6122,-1.8058m-4.9572 23.4219l3.4931 -6.5273 0 -13.563m-8.0936 -0.0153l8.0936 0.0153 0 -1.6954c-0.0853,-0.5933 -0.3408,-1.0172 -0.7669,-1.6475m27.6915 -0.2962l-0.003 -1.8709c-0.5282,-2.4692 -1.6187,-4.2384 -2.4707,-6.612l0 -5.51 0.5964 -0.7629 4.6006 0 0.5963 0.6781 0 1.9498m-23.6842 14.5591l-1.8744 0.0211m7.6755 -0.0847l0 -7.2902m-2.5638 0l5.7054 0.0007c0.4867,0.0421 0.6346,-0.0124 0.6859,0.6029l0.0063 6.6866m-9.6349 -2.0345l0 2.0981 13.0348 0.0211c0.5964,0 0.852,-0.1272 0.852,-0.7629l0 -1.6954 10.7281 0.0099c0.688,-0.0099 0.6798,-0.2692 0.688,-0.9423l0 -3.306m-58.0605 -16.4453c0.447,0 0.8094,0.4934 0.8094,1.1021 0,0.6086 -0.3624,1.102 -0.8094,1.102 -0.447,0 -0.8093,-0.4934 -0.8093,-1.102 0,-0.6087 0.3623,-1.1021 0.8093,-1.1021zm0.8094 1.0173l1.5335 -0.0019m-5.5909 2.3754l0.0103 1.4301c0.8519,0.4751 1.6656,0.4742 2.4283,-0.0036l-0.0024 -1.4265m-3.3202 7.9684l-0.0028 -2.7974m-3.7457 2.7974l-0.0043 -2.7974m7.5015 8.053l0 -8.053 -8.3492 0c-0.6482,-0.0028 -0.9754,-0.2387 -1.0223,-0.6782l0 -3.4755c-0.0181,-0.7026 0.3484,-1.0687 1.1928,-1.0173l10.9049 0 0 -3.306c-0.0183,-0.6826 0.3147,-1.0304 0.9371,-1.102l3.919 0c0.5768,-0.0479 0.9773,-0.0174 1.0649,0.8477l0 2.7974 -5.921 0m7.4972 17.8015l0.0075 5.0862m-6.5684 -4.1338l14.8248 -0.02 0 4.1538m-14.824 -5.6796l-0.0032 5.6796m0.0032 -8.2227c-0.0196,-0.4207 -0.2409,-0.652 -0.6815,-0.6781l-5.9637 0c-0.4441,-0.008 -0.6803,0.2082 -0.6815,0.6781l0 3.0517 0 -0.5641 7.3267 0 0 -2.4876zm-27.092 -2.3734l0 1.6105 7.3268 0m-3.1522 -2.5431l0 6.612m3.2374 0l-7.412 0m0 -4.0689l0 20.6769c0,0.3236 -0.0221,0.8533 0.2012,1.1877 0.2233,0.3344 0.7033,0.2601 1.0391,0.2601l2.849 0 0.0853 -18.0558m-4.1746 4.028l4.1557 0.001m-4.1557 9.7486l7.1564 0.0398c0.7772,0.0342 1.1471,-0.2626 1.1075,-0.8477l0 -3.2212 -4.1353 0.0026 0 0m4.1353 -0.0026l17.9762 0c0.4482,0.034 0.8164,0.2585 0.8562,0.8193l0 1.6105c0.0362,0.655 -0.3279,0.8991 -0.771,0.8762l-6.6453 0 0 0.7629 -2.9818 0c-0.4911,0.0342 -0.777,-0.1337 -0.7667,-0.5934l0 -3.4755m3.7485 3.306l0.0101 -3.306m5.7862 0l-0.0029 -3.8146c0,-0.6781 0.0851,-0.9324 0.6815,-1.0172l3.1523 0 0 6.4424 -2.2109 0.014m2.2109 -6.4564l3.4929 0 0 6.4424 -3.4929 0m3.4929 -6.4424l9.1159 0 -0.0852 5.3404 -1.3631 0 -1.6188 -0.5086 -1.0859 -0.1127 -2.6626 -4.7191m2.6626 4.7191l-4.9629 0.0078m-13.1229 -21.6807c0.0397,-0.4272 0.3157,-0.6879 0.8548,-0.7629l2.2151 0c0.6371,0.1932 0.8948,0.4431 0.6816,0.7629l9.1158 0 2.5559 -1.102 1.3631 -0.1695m24.1954 4.4079l-5.7932 0c-0.4852,-0.0367 -0.7732,0.1766 -0.7668,0.7629l0 1.6954 -8.0739 0 0.0128 -7.8835m14.6108 -2.7974l0.0103 8.2226 3.4079 0m-14.0572 -10.6809l4.0893 0 0 1.8649c0.0429,0.3838 0.2209,0.5758 0.5279,0.5856l6.6285 0.0078 2.3854 -2.3735 1.1928 0m-16.4427 1.1867l0 -0.6781c0.0357,-0.3285 0.2203,-0.5377 0.5964,-0.5934l1.0224 0 0 -2.7126m-9.0307 4.0086l7.4119 -0.0245 0 3.306c-0.0624,0.4673 -0.2376,0.6827 -0.5111,0.6782l-6.1341 0c-0.3667,-0.0023 -0.6478,-0.1553 -0.7667,-0.5934l0 -2.204m-8.903 -0.8477c-0.0575,0.5496 0.1719,0.816 0.639,0.8477l8.264 0 0 -2.7973m-14.824 2.7125l0 0.9325c0.0438,0.4282 0.229,0.5991 0.5112,0.5934l0.6815 0c0.3627,0.0244 0.5658,0.2175 0.5964,0.5934l-0.0748 3.0517m14.0468 12.8l0 -4.0689c0.0167,-0.5416 0.2974,-0.8273 0.8519,-0.8476l3.1523 0 0.1048 -2.2888m-4.109 6.7923l14.6536 0.074 0 -5.2557 3.2373 0 0.0016 -4.0689m-5.7096 2.4583l0 1.6106 2.4707 0m-7.8011 5.2164l0.0299 -2.3436 4.193 0.0094 0.1011 -0.1228c0.41,-0.301 0.5006,-0.5963 0.7508,-0.8945l2.7263 0.0044m-2.4707 -1.8693l-0.2556 1.8649m-0.8519 1.0173c-0.7297,0.8721 -1.1927,1.441 -1.5177,2.3479m-5.5535 -4.5519c0,1.1019 0.3455,1.7921 0.8519,2.4583 0.5063,0.6662 1.6187,1.1867 2.4706,2.0823m-45.1534 19.198l12.7793 -0.0033c0.4207,-0.0091 0.617,-0.2375 0.5964,-0.6781l0 -1.0173c-0.035,-0.4314 0.1806,-0.6425 0.5964,-0.6781l14.2276 -0.0848c0.4611,-0.1013 0.6553,-0.3771 0.6815,-0.7629l-0.1704 -5.0014m-13.1201 2.4583l0.0853 0.3391 0.0056 3.0416m4.0848 -4.1436l-0.0001 4.1193m3.231 -0.0194l0.0054 5.9876 0.5964 0.5934 18.5725 0m0.2556 34.8999l0 -34.8151 -0.2556 -0.0848m-15.8713 -6.6006l0.0001 6.6006m20.4718 -6.1034l-3.3227 6.1882 -0.0151 34.861m-43.4344 -21.2748l6.9008 -0.0232 -0.0851 -1.1868m19.4772 11.1047l0.0324 -5.0861 0.5112 -0.6781 15.5907 0m-19.4174 5.7642l-0.0071 18.7341c-0.0513,0.3201 -0.2137,0.5523 -0.5112,0.6781l-7.8379 0c-0.4951,-0.0534 -0.7092,-0.2762 -0.7667,-0.5934l0 -3.7298c0.0547,-0.3383 0.2246,-0.5651 0.5111,-0.6781m3.7655 5.0013c-0.102,-0.9324 0.6586,-2.2888 1.6018,-2.2888 0.9433,0 1.7891,1.2716 1.694,2.2888m-0.9607 -19.4122l0.0335 8.3075c-0.0204,0.3289 0.1034,0.5415 0.4259,0.5933l2.0484 -0.0133 0 -0.0001m0.0003 -0.6541l3.4891 -0.0106c0.3302,-0.0763 0.5474,-0.2087 0.5963,-0.4238m15.3351 -27.716l-2.9818 -0.0035m-9.161 -0.7094c-0.9028,1.2274 -0.8427,2.9063 -0.6365,3.8458 0.2063,0.9394 0.4261,1.6106 -0.5963,3.8146 -0.3408,1.3563 0.1704,2.5431 0.426,3.3908 0.5138,1.3412 0.5964,2.2887 -0.203,3.8146m-0.1621 -7.3381l13.3147 0m-5.5347 0l-0.0029 -4.4448c0.0661,-0.393 -0.1164,-0.581 -0.5112,-0.5934l-3.2374 -0.1696 -0.0964 -0.0388m7.0036 5.2466l-0.0064 2.1671c0,0.2543 -0.1705,0.3392 -0.426,0.424l-0.6816 0c-0.3429,0.1306 -0.4424,0.3624 -0.3408,0.6781l-0.0419 4.0689m-18.9565 -22.9544l0 28.194m-0.0081 -22.6202c-0.457,-0.7729 -1.0238,-1.3736 -2.0447,-1.2628 -1.1702,0.1353 -1.6185,0.7757 -1.789,1.6106l0.008 16.4394c0.3791,0.7453 0.9224,1.2476 1.7891,1.2715 1.136,0.024 1.7327,-0.5616 2.0447,-1.4687m38.0822 -19.4692l-12.8646 0.0044 0 0.0001m9.1751 -0.0032l0.0261 9.6624 -10.5674 -0.0064m10.5674 0.0064l4.2597 0 0 -3.2213 -4.2685 -0.0038 0 -0.0001m-0.0111 -4.1191l4.1967 0.0159 0 -1.9073c-0.0227,-0.3377 -0.2107,-0.4555 -0.5112,-0.4238m-13.9225 1.9663c1.7988,0.0217 3.2708,0.742 3.2708,1.6745 0,0.9325 -1.8821,1.6334 -3.5794,1.5701m14.7423 -2.8798l4.3427 0.0382c0.277,0.073 0.426,0.2543 0.426,0.5934l-0.0038 3.4755 -4.682 0m4.771 0l1.8742 0c0.2556,0.0848 0.426,0.1696 0.5112,0.5086l0 5.2558 -9.7042 0 0.0047 -2.5431m2.5566 2.5431l-0.0135 -2.5431m3.0769 -3.2213c-0.3157,0.8195 -0.8618,1.3563 -0.947,2.4584 -0.0852,1.102 1.9596,1.102 2.6411,1.2715 0.6815,0.1695 0.8093,1.3562 0.651,2.0345m1.7344 0l8.5163 0.0022c0.306,0.0805 0.471,0.283 0.5112,0.5933l0.0032 2.88m-18.7349 -3.4755l-0.0081 3.8993 9.9679 0m-2.7322 -3.8993l0 3.8993m-4.6663 -3.8993l0.0083 3.8993 -0.0218 5.0861 7.1379 0c0.3233,-0.0209 0.7304,-0.3206 0.7852,-0.7226l0 -3.8549c-0.0648,-0.2949 -0.2412,-0.4574 -0.5111,-0.5086m-3.5014 5.0861l0 -5.0861m-3.8995 2.504l7.912 -0.0033m-10.479 -2.5007l-12.274 0.0095m7.275 -6.4539l0.0001 6.4482m-7.2783 7.465l22.005 -0.0091 0.0033 -2.3772m-15.4258 2.3835l-0.0001 -7.4616m8.2507 5.0817l-0.0025 2.3765m3.8421 -0.0015l0.0012 -2.375m4.0823 -2.5854l6.7305 0m-10.8012 -32.4659l13.1867 0.0417 0.0186 -7.3666m-9.9013 13.9786l7.6675 -0.0848c1.3805,-0.496 2.0447,-1.2715 2.2152,-2.3735l0 -4.1537m-39.8713 41.4346l6.9859 -0.0004m0 4.9303l-1.0223 0.0042c-0.3219,-0.0077 -0.3786,0.162 -0.3408,0.5086l0 0.5934c-0.0157,0.3726 -0.2912,0.5163 -0.5964,0.5086l-4.7708 0c-0.2905,0.0291 -0.4454,-0.0974 -0.4261,-0.4238l0 -6.0186 0.1705 -0.1023m7.9231 4.7645l10.9902 0c0.4071,-0.0236 0.6169,-0.2659 0.5963,-0.7629l0.0133 -8.0487m-0.008 4.7676l10.4737 0.0599 0.0155 -4.8318m-7.1744 0.0029l0.0025 9.2369c-0.033,0.3207 0.1286,0.4733 0.426,0.5087l4.345 0 0 -2.4584 1.6186 -0.0847c0.4627,-0.1339 0.7668,-0.5086 0.7668,-0.8477l0 -1.5259m-2.3854 2.4583l-4.7716 0.0022 0 -0.0001m2.3858 -0.001l0.0014 2.4573m1.5231 -2.4581l-0.0701 -7.289m-15.3883 8.8145l0.0474 13.6479c0.0719,0.1297 0.0852,0.339 0.3408,0.4238l10.5642 -0.0848c0.3039,0.0192 0.4454,-0.1224 0.4259,-0.4238l0 -2.8822 -11.3309 0m-0.0158 -1.582l-6.459 0.0562 0 3.2213 6.4702 -0.0126 0 -0.0001m-6.4702 -3.2086c-0.0308,-0.5857 -0.2925,-0.8152 -0.6816,-0.8476l-3.8338 0c-0.3878,0.1731 -0.5681,0.4974 -0.5963,0.9324l0 4.1537c0.0331,0.3437 0.1993,0.5538 0.5479,0.5813l3.919 0c0.2852,-0.0539 0.4933,-0.1728 0.5596,-0.4118l0.0852 -1.1867m12.0976 1.6529l0.0039 -14.0293m5.7042 10.6809l0 -2.0344c0.1608,-0.2606 0.3316,-0.3669 0.5112,-0.339l11.4161 0c0.2556,-0.0848 0.3408,-0.1696 0.3408,-0.424l0 -4.7893c0.0205,-0.2857 0.0759,-0.499 0.3408,-0.5511l1.7039 0m-9.415 5.7644l-0.0124 -7.3749m-1.56 7.3749l-0.0028 2.7125c-0.0117,0.2848 0.1613,0.442 0.426,0.5086l6.4748 0c0.2779,-0.077 0.4389,-0.2093 0.426,-0.4238l0.0026 -2.7973"/>
  <path class="fil0 str3" d="M159.433 9.6298l3.7487 0 7.7527 5.1709 18.8282 0 6.3044 -2.2887 26.6661 0c0.979,0.0695 2.078,1.4464 3.3226,4.408l0.1703 10.3418m8.7665 70.0615l0.0087 -17.3351 4.0893 -7.2054 -0.0852 -12.5459 -3.3226 -5.2556 0 -12.8849"/>
  <rect class="fil1" x="117.943" y="19.1066" width="21.3839" height="2.37357"/>
 </g>
</svg>
